# xmcd
#
# Track frame offsets:
#	182
#	15907
#	29080
#	36672
#	48635
#	60425
#	75240
#	83925
#	98885
#	107110
#	118067
#	129135
#	140545
#	149147
#	161480
#	172835
#	187082
#
# Disc length: 2629 seconds
#
# Revision: 0
# Processed by: cddbd v1.4PL0 Copyright (c) Steve Scherf et al.
# Submitted via: audiograbber 1.81.03
#
DISCID=e80a4311
DTITLE=Big Joe Williams - 16 Greatest Hits
DYEAR=1900
DGENRE=
TTITLE0=nobody knows when you´re down and out
TTITLE1=don´t want no big fat woman
TTITLE2=terraplane blues
TTITLE3=ride in my new car
TTITLE4=sloppy druck blues
TTITLE5=i´ve been wrong but i´ll be right
TTITLE6=goin´ awaywon´t be back till fall
TTITLE7=back on ma feet
TTITLE8=baby please don´t go
TTITLE9=sinking blues
TTITLE10=tell my mother
TTITLE11=bye, bye baby blue
TTITLE12=levee break blues
TTITLE13=sugar mama
TTITLE14=this heavy stuff of mine
TTITLE15=when i first left home
TTITLE16=44" blues
EXTD=
EXTT0=
EXTT1=
EXTT2=
EXTT3=
EXTT4=
EXTT5=
EXTT6=
EXTT7=
EXTT8=
EXTT9=
EXTT10=
EXTT11=
EXTT12=
EXTT13=
EXTT14=
EXTT15=
EXTT16=
PLAYORDER=
